<!DOCTYPE svg PUBLIC "-//W3C//DTD SVG 1.1//EN" "http://www.w3.org/Graphics/SVG/1.1/DTD/svg11.dtd">

<!-- Uploaded to: SVG Repo, www.svgrepo.com, Transformed by: SVG Repo Mixer Tools -->
<svg fill="green" height="800px" width="800px" version="1.1" id="Capa_1" xmlns="http://www.w3.org/2000/svg" xmlns:xlink="http://www.w3.org/1999/xlink" viewBox="0 0 429.601 429.601" xml:space="preserve" stroke="#fbff00">

<g id="SVGRepo_bgCarrier" stroke-width="0"/>

<g id="SVGRepo_tracerCarrier" stroke-linecap="round" stroke-linejoin="round"/>

<g id="SVGRepo_iconCarrier"> <path id="XMLID_581_" d="M193.673,235.931c5.825,5.824,13.475,8.736,21.127,8.736s15.305-2.914,21.13-8.738 c11.649-11.651,11.648-30.606-0.001-42.255c-5.628-5.629-13.131-8.729-21.128-8.729c-7.996,0-15.5,3.1-21.128,8.729 C182.023,205.322,182.023,224.278,193.673,235.931z M207.815,207.815c1.926-1.926,4.456-2.889,6.986-2.889 c2.53,0,5.061,0.963,6.986,2.889c3.852,3.852,3.851,10.121,0,13.973c-3.853,3.851-10.12,3.852-13.972-0.001 C203.963,217.935,203.963,211.667,207.815,207.815z M208.8,122.457L96.343,206.8c-2.518,1.889-4,4.853-4,8s1.482,6.111,4,8 L208.8,307.144c1.778,1.333,3.889,2,6,2s4.222-0.667,6-2L333.258,222.8c2.518-1.889,4-4.853,4-8s-1.482-6.111-4-8L220.8,122.457 C217.245,119.79,212.356,119.79,208.8,122.457z M310.591,214.8L214.8,286.644L119.009,214.8l95.791-71.843L310.591,214.8z M425.601,206.8L220.8,53.2c-3.556-2.667-8.444-2.667-12,0L4,206.8c-2.518,1.889-4,4.853-4,8s1.482,6.111,4,8l204.8,153.6 c1.778,1.333,3.889,2,6,2s4.222-0.667,6-2l204.8-153.6c2.518-1.889,4-4.853,4-8S428.119,208.689,425.601,206.8z M214.8,355.901 L26.667,214.8L214.8,73.7l188.134,141.1L214.8,355.901z"/> </g>

</svg>